<?xml version="1.0" encoding="UTF-8"?>
<svg id="Capa_2" data-name="Capa 2" xmlns="http://www.w3.org/2000/svg" viewBox="0 0 1425.63 718.85">
  <defs>
    <style>
      .cls-1 {
        fill: #010101;
      }
    </style>
  </defs>
  <g id="Capa_1-2" data-name="Capa 1">
    <g id="Logo">
      <g>
        <g>
          <path class="cls-1" d="M104.64,259.42c-29.05,0-54.11-9.95-74.41-29.84C9.95,209.29,0,184.62,0,155.17s9.95-54.11,30.24-74c20.29-20.29,45.36-30.24,74.41-30.24s53.71,9.95,74,30.24c20.29,19.89,30.64,44.56,30.64,74s-10.35,54.11-30.64,74.4c-20.29,19.89-44.96,29.84-74,29.84Zm0-25.46c21.88,0,40.58-7.56,55.7-22.68,15.12-15.52,22.68-34.22,22.68-56.1s-7.56-40.58-22.68-55.7c-15.12-15.52-33.82-23.08-55.7-23.08s-40.59,7.56-55.7,23.08c-15.12,15.12-22.68,33.82-22.68,55.7s7.56,40.59,22.68,56.1c15.12,15.12,33.82,22.68,55.7,22.68Z"/>
          <path class="cls-1" d="M354.52,81.17h-57.3v120.56c0,34.22,19.1,31.43,57.3,29.84v23.08c-55.7,8.36-83.56-6.76-83.56-52.92V81.17h-41.78v-25.46h41.78V7.96l26.26-7.96V55.7h57.3v25.46Z"/>
          <path class="cls-1" d="M424.55,88.73c12.33-24.27,33.02-36.21,62.87-36.21v25.46c-36.21,0-62.87,20.29-62.87,66.05v110.61h-26.26V55.7h26.26v33.02Z"/>
          <path class="cls-1" d="M603.99,259.42c-29.05,0-54.11-9.95-74.4-29.84-20.29-20.29-30.24-44.96-30.24-74.4s9.95-54.11,30.24-74c20.29-20.29,45.36-30.24,74.4-30.24s53.71,9.95,74.01,30.24c20.29,19.89,30.64,44.56,30.64,74s-10.35,54.11-30.64,74.4c-20.29,19.89-44.96,29.84-74.01,29.84Zm0-25.46c21.88,0,40.58-7.56,55.7-22.68,15.12-15.52,22.68-34.22,22.68-56.1s-7.56-40.58-22.68-55.7c-15.12-15.52-33.82-23.08-55.7-23.08s-40.58,7.56-55.7,23.08c-15.12,15.12-22.68,33.82-22.68,55.7s7.56,40.59,22.68,56.1c15.12,15.12,33.82,22.68,55.7,22.68Z"/>
        </g>
        <g>
          <path class="cls-1" d="M44.96,426.78c6.37,30.24,30.64,46.95,63.66,46.95,22.68,0,39.79-8.36,51.33-24.67l35.41,20.69c-19.5,29.05-48.54,43.37-87.14,43.37-32.23,0-58.49-9.95-78.38-29.44C9.95,463.78,0,438.71,0,408.48s9.95-54.51,29.44-74.41c19.5-20.29,44.96-30.24,75.6-30.24,29.05,0,52.92,10.34,71.62,30.64,18.7,20.29,28.25,45.36,28.25,74.4,0,4.38-.4,10.35-1.59,17.91H44.96Zm116.58-35.01c-5.97-32.23-28.65-48.94-56.9-48.94-31.83,0-54.11,18.7-60.08,48.94h116.98Z"/>
          <path class="cls-1" d="M310.75,389.77c30.64,6.76,70.42,19.5,69.63,62.07,0,19.1-7.56,34.22-22.28,44.96-14.72,10.74-33.02,16.31-55.31,16.31-39.39,0-68.43-17.51-81.17-46.55l37-21.49c6.76,19.1,21.48,28.65,44.16,28.65s33.82-7.56,33.82-22.28c0-12.73-16.71-20.29-37.8-25.46-29.84-7.56-70.03-19.5-69.23-61.27,0-18.3,6.76-33.02,20.69-44.17,13.93-11.14,31.43-16.71,52.12-16.71,33.02,0,59.68,15.52,73.61,41.38l-36.21,20.29c-6.76-15.12-19.5-22.68-37.4-22.68-16.31,0-29.05,7.16-29.05,21.09,0,13.13,16.71,19.89,37.4,25.86Z"/>
          <path class="cls-1" d="M600.81,334.47c19.5,20.29,29.05,44.96,29.05,74.01s-9.55,54.11-29.05,74.4c-19.5,20.29-42.57,30.24-70.03,30.24-30.24,0-53.32-11.14-69.63-33.42v107.83h-42.97V309h42.97v28.65c16.31-22.68,39.39-33.82,69.63-33.82,27.45,0,50.53,10.34,70.03,30.64Zm-76.79,137.67c17.91,0,33.02-5.97,44.96-17.91,11.94-12.33,17.9-27.45,17.9-45.76s-5.97-33.42-17.9-45.36c-11.94-12.34-27.06-18.3-44.96-18.3s-33.02,5.97-44.96,18.3c-11.94,11.93-17.91,27.06-17.91,45.36s5.97,33.42,17.91,45.76c11.94,11.94,27.06,17.91,44.96,17.91Z"/>
          <path class="cls-1" d="M826.41,309h42.97v198.94h-42.97v-28.65c-16.31,22.68-39.39,33.82-69.63,33.82-27.45,0-50.53-9.95-70.03-30.24-19.5-20.29-29.05-45.36-29.05-74.4s9.55-54.11,29.05-74.41c19.5-20.29,42.57-30.24,70.03-30.24,30.24,0,53.32,11.14,69.63,33.42v-28.25Zm-62.87,163.13c17.9,0,33.02-5.97,44.96-17.91,11.94-12.33,17.9-27.45,17.9-45.76s-5.97-33.42-17.9-45.36c-11.94-12.34-27.06-18.3-44.96-18.3s-33.02,5.97-44.96,18.3c-11.94,11.93-17.91,27.06-17.91,45.36s5.97,33.42,17.91,45.76c11.93,11.94,27.06,17.91,44.96,17.91Z"/>
          <path class="cls-1" d="M938.22,482.88c-19.89-20.29-29.84-44.96-29.84-74.4s9.95-54.51,29.84-74.41c20.29-20.29,45.36-30.24,75.2-30.24,38.6,0,72.81,19.89,88.73,51.33l-37,21.49c-9.15-19.1-28.25-30.64-52.12-30.64-17.51,0-32.23,5.97-44.16,17.91-11.54,11.94-17.51,26.66-17.51,44.56s5.97,32.63,17.51,44.56c11.94,11.94,26.66,17.9,44.16,17.9,23.48,0,43.37-11.94,52.92-30.64l37,21.09c-17.11,31.83-50.93,51.73-89.52,51.73-29.84,0-54.91-9.95-75.2-30.24Z"/>
          <path class="cls-1" d="M1135.97,271.21c-10.74-11.14-10.74-27.85,0-38.6,10.74-11.14,28.25-11.14,38.99,0,10.74,10.74,10.74,27.45-.4,38.6-10.74,10.74-27.45,10.74-38.59,0Zm-1.99,236.74v-198.94h42.97v198.94h-42.97Z"/>
          <path class="cls-1" d="M1246.18,482.88c-20.29-20.29-30.64-44.96-30.64-74.4s10.35-54.11,30.64-74.41c20.29-20.29,45.36-30.24,74.4-30.24s54.11,9.95,74.4,30.24c20.29,20.29,30.64,44.96,30.64,74.41s-10.35,54.11-30.64,74.4c-20.29,20.29-44.96,30.24-74.4,30.24s-54.11-9.95-74.4-30.24Zm74.4-11.54c17.51,0,32.23-5.97,44.17-17.91,11.94-11.94,17.9-27.06,17.9-44.96s-5.97-33.02-17.9-44.96c-11.94-11.94-26.66-17.9-44.17-17.9s-32.23,5.97-44.16,17.9c-11.94,11.94-17.91,27.06-17.91,44.96s5.97,33.02,17.91,44.96c11.94,11.94,26.66,17.91,44.16,17.91Z"/>
        </g>
      </g>
      <g>
        <path class="cls-1" d="M847.53,592.85h9.04v88.61h-9.04v-20.03c-7.62,13.65-21.27,21.98-38.1,21.98-12.58,0-23.39-4.43-32.43-13.29-9.04-9.04-13.47-20.03-13.47-32.97s4.43-23.92,13.47-32.79c9.04-9.04,19.85-13.47,32.43-13.47,16.84,0,30.48,8.33,38.1,21.98v-20.03Zm-37.4,82.06c10.46,0,19.32-3.72,26.58-10.99,7.27-7.27,10.81-16.31,10.81-26.76s-3.54-19.49-10.81-26.76c-7.27-7.27-16.13-10.99-26.58-10.99s-19.49,3.72-26.76,10.99c-7.27,7.27-10.81,16.3-10.81,26.76s3.54,19.5,10.81,26.76c7.27,7.27,16.3,10.99,26.76,10.99Z"/>
        <path class="cls-1" d="M962.55,592.85h8.86v84.36c0,12.94-4.25,23.04-12.58,30.48-8.33,7.44-18.96,11.17-31.55,11.17-20.38,0-35.27-7.98-41.83-21.27l7.8-4.43c5.67,11.52,17.01,17.19,34.03,17.19,21.98,0,35.27-12.76,35.27-33.14v-16.3c-7.27,14-21.27,22.51-38.11,22.51-12.76,0-23.57-4.43-32.61-13.29-8.86-9.04-13.29-20.03-13.29-32.97s4.43-23.92,13.29-32.79c9.04-9.04,19.85-13.47,32.61-13.47,16.84,0,30.84,8.51,38.11,22.51v-20.56Zm-37.57,82.06c10.45,0,19.32-3.72,26.58-10.99,7.27-7.27,10.99-16.31,10.99-26.76s-3.72-19.49-10.99-26.76c-7.27-7.27-16.13-10.99-26.58-10.99s-19.5,3.72-26.76,10.99c-7.27,7.27-10.81,16.3-10.81,26.76s3.55,19.5,10.81,26.76c7.27,7.27,16.31,10.99,26.76,10.99Z"/>
        <path class="cls-1" d="M1070.12,604.72c8.15,9.22,12.23,20.2,12.23,32.79,0,.89-.18,3.37-.18,4.25h-80.28c1.06,9.93,4.96,17.9,11.87,24.1,6.91,6.03,15.6,9.04,25.7,9.04,14.18,0,25.17-6.38,30.66-16.13l7.8,4.61c-7.27,12.23-21.44,20.03-38.64,20.03-13.65,0-24.81-4.25-33.49-12.94-8.68-8.68-13.12-19.85-13.12-33.32s4.25-24.28,12.76-32.96c8.68-8.86,19.67-13.29,33.14-13.29s23.57,4.61,31.55,13.82Zm-56.71,4.08c-6.73,6.2-10.63,14.36-11.52,24.28h71.24c-.89-10.46-4.79-18.79-11.34-24.63-6.56-6.03-14.18-9.04-23.22-9.04-10.1,0-18.43,3.19-25.17,9.39Z"/>
        <path class="cls-1" d="M1178.04,626.34v55.12h-9.04v-55.12c0-16.48-9.57-26.94-26.05-26.94-18.25,0-31.01,12.41-31.01,35.27v46.79h-8.86v-88.61h8.86v16.84c6.38-12.58,17.01-18.79,31.72-18.79,21.09,0,34.38,14,34.38,35.45Z"/>
        <path class="cls-1" d="M1210.29,670.12c-8.86-8.86-13.29-19.85-13.29-32.97s4.43-24.1,13.29-32.96c8.86-8.86,20.03-13.29,33.32-13.29,17.19,0,32.26,8.68,38.64,22.69l-7.27,4.25c-5.14-11.34-17.19-18.43-31.37-18.43-10.63,0-19.49,3.72-26.76,10.99-7.27,7.27-10.81,16.13-10.81,26.76s3.54,19.67,10.81,26.94c7.27,7.27,16.13,10.81,26.76,10.81,14.18,0,26.05-7.09,31.9-18.43l7.45,4.43c-7.09,13.65-22.15,22.51-39.35,22.51-13.29,0-24.46-4.43-33.32-13.29Z"/>
        <path class="cls-1" d="M1313.96,564.31c.35,9.22-14.53,9.22-14.18,0-.35-8.86,14.53-8.86,14.18,0Zm-11.52,117.15v-88.61h8.86v88.61h-8.86Z"/>
        <path class="cls-1" d="M1416.57,592.85h9.04v88.61h-9.04v-20.03c-7.62,13.65-21.27,21.98-38.1,21.98-12.58,0-23.39-4.43-32.43-13.29-9.04-9.04-13.47-20.03-13.47-32.97s4.43-23.92,13.47-32.79c9.04-9.04,19.85-13.47,32.43-13.47,16.84,0,30.48,8.33,38.1,21.98v-20.03Zm-37.4,82.06c10.46,0,19.32-3.72,26.58-10.99,7.27-7.27,10.81-16.31,10.81-26.76s-3.54-19.49-10.81-26.76c-7.27-7.27-16.13-10.99-26.58-10.99s-19.49,3.72-26.76,10.99c-7.27,7.27-10.81,16.3-10.81,26.76s3.54,19.5,10.81,26.76c7.27,7.27,16.3,10.99,26.76,10.99Z"/>
      </g>
    </g>
  </g>
</svg>